# xmcd
#
# Track frame offsets:
#	150
#	12795
#	27022
#	39345
#	49165
#	61397
#	74725
#	89132
#	99235
#	113092
#	125140
#	140172
#	152945
#	163942
#	175770
#	189727
#	205980
#	216525
#	228500
#	238830
#
# Disc length: 3357 seconds
#
# Revision: 0
# Processed by: cddbd v1.5.2PL0 Copyright (c) Steve Scherf et al.
# Submitted via: EasyCDDAExtractor 15.2.5.1
#
DISCID=310d1b14
DTITLE=Connie Francis and Dean Martin - 20 Golden Memories
DYEAR=1900
DGENRE=Oldies
TTITLE0=Dean Martin - Everybody Loves Somebody Sometime
TTITLE1=Dean Martin - My Heart Cries For You
TTITLE2=Dean Martin - Return To Me
TTITLE3=Dean Martin - The One I Love (Belongs To Somebody Else)
TTITLE4=Dean Martin - Take These Chains From My Heart
TTITLE5=Dean Martin - Crying Time
TTITLE6=Dean Martin - Release Me
TTITLE7=Dean Martin - Memories Are Made Of This
TTITLE8=Dean Martin - Thats Amore
TTITLE9=Dean Martin - (Sway) Quin Sera
TTITLE10=Connie Francis - The Last Waltz
TTITLE11=Connie Francis - I Can't Stop Loving You
TTITLE12=Connie Francis - Anniversary Waltz
TTITLE13=Connie Francis - Among My Souvenirs
TTITLE14=Connie Francis - Don't Break The Heart That Loves You
TTITLE15=Connie Francis - Kiss Me Goodbye
TTITLE16=Connie Francis - Lipstick On Your Collar
TTITLE17=Connie Francis - Where The Boys Are
TTITLE18=Connie Francis - Stupid Cupid
TTITLE19=Connie Francis - Tennessee Waltz
EXTD=
EXTT0=
EXTT1=
EXTT2=
EXTT3=
EXTT4=
EXTT5=
EXTT6=
EXTT7=
EXTT8=
EXTT9=
EXTT10=
EXTT11=
EXTT12=
EXTT13=
EXTT14=
EXTT15=
EXTT16=
EXTT17=
EXTT18=
EXTT19=
PLAYORDER=
